<?xml version="1.0" encoding="UTF-8" standalone="no"?>
<!-- Created with Inkscape (http://www.inkscape.org/) -->

<svg
   width="512"
   height="512"
   viewBox="0 0 512 512"
   version="1.1"
   id="svg1"
   xml:space="preserve"
   inkscape:version="1.4 (86a8ad7, 2024-10-11)"
   sodipodi:docname="logo.svg"
   inkscape:export-filename="Flow.Launcher.Plugin.FlowTamer\Images\logoSmall.png"
   inkscape:export-xdpi="18"
   inkscape:export-ydpi="18"
   xmlns:inkscape="http://www.inkscape.org/namespaces/inkscape"
   xmlns:sodipodi="http://sodipodi.sourceforge.net/DTD/sodipodi-0.dtd"
   xmlns="http://www.w3.org/2000/svg"
   xmlns:svg="http://www.w3.org/2000/svg"><sodipodi:namedview
     id="namedview1"
     pagecolor="#505050"
     bordercolor="#eeeeee"
     borderopacity="1"
     inkscape:showpageshadow="0"
     inkscape:pageopacity="0"
     inkscape:pagecheckerboard="0"
     inkscape:deskcolor="#505050"
     inkscape:document-units="px"
     inkscape:zoom="1.5917969"
     inkscape:cx="266.36564"
     inkscape:cy="222.07607"
     inkscape:window-width="1920"
     inkscape:window-height="1017"
     inkscape:window-x="-8"
     inkscape:window-y="-8"
     inkscape:window-maximized="1"
     inkscape:current-layer="layer1" /><defs
     id="defs1"><inkscape:path-effect
       effect="fill_between_many"
       method="originald"
       linkedpaths="#path7,0,1|#circle1,0,1|#path1-8,0,1|#path6,0,1|"
       id="path-effect22" /><inkscape:path-effect
       effect="fill_between_many"
       method="originald"
       linkedpaths="#path7,0,1|#circle1,0,1|"
       id="path-effect23" /></defs><g
     inkscape:label="Layer 1"
     inkscape:groupmode="layer"
     id="layer1"
     transform="matrix(0.9765625,0,0,0.9765625,6,6)"><circle
       style="fill:#567a91;fill-opacity:1;stroke:none;stroke-width:1.85669;-inkscape-stroke:none"
       id="circle1"
       cy="256"
       cx="256"
       r="256" /><circle
       style="fill:#6895ad;fill-opacity:1;stroke:none;stroke-width:2.15184;-inkscape-stroke:none"
       id="circle2"
       cx="256"
       cy="256"
       r="210" /><g
       style="fill:none"
       id="g1"
       transform="matrix(15.85,0,0,15.85,65.8,65.8)"><circle
         opacity="0.5"
         cx="12"
         cy="12"
         r="10"
         fill="#1c274c"
         id="circle1-0"
         style="opacity:1;fill:#769fb4;fill-opacity:1;stroke:#ffffff;stroke-width:1.26183;stroke-dasharray:none;stroke-opacity:1;paint-order:fill markers stroke" /><path
         d="M 8.57516,9.44737 C 8.3879,7.36316 6.7806,5.42105 6.00035,4.71053 L 5.56934,4.34189 C 7.30792,2.88037 9.55133,2 12.0004,2 c 2.2133,0 4.2588,0.7191 5.9154,1.93642 0.234,0.71053 -0.2118,2.19516 -0.6799,2.90569 -0.1696,0.25736 -0.5541,0.57687 -0.9757,0.87975 -0.9505,0.68291 -2.15,1.02068 -2.7598,2.27814 -0.1744,0.3595 -0.1669,0.7108 -0.0831,1.0163 0.0603,0.2195 0.0988,0.4582 0.0994,0.6917 0.002,0.7549 -0.7615,1.3002 -1.5163,1.292 C 10.0361,12.9786 8.7502,11.3955 8.57516,9.44737 Z"
         fill="#1c274c"
         id="path1"
         style="fill:#ffffff;fill-opacity:1" /><path
         d="m 13.4365,18.2761 c 0.9881,-1.8621 4.2817,-1.8621 4.2817,-1.8621 3.432,-0.0358 3.8956,-2.1196 4.2055,-3.1728 -0.5547,4.4814 -4.0743,8.0437 -8.5352,8.6634 -0.3226,-0.679 -0.7048,-2.21 0.048,-3.6285 z"
         fill="#1c274c"
         id="path2"
         style="fill:#ffffff;fill-opacity:1" /></g></g></svg>
